<?xml version="1.0" encoding="UTF-8"?>
<svg version="1.1" xmlns="http://www.w3.org/2000/svg" width="225" height="225">
<path d="M0 0 C74.25 0 148.5 0 225 0 C225 74.25 225 148.5 225 225 C150.75 225 76.5 225 0 225 C0 150.75 0 76.5 0 0 Z " fill="#84A4CF" transform="translate(0,0)"/>
<path d="M0 0 C2.2680963 2.77211769 2.94918829 4.24053006 3.25 7.75 C4.24 7.42 5.23 7.09 6.25 6.75 C7.59351145 13.10114504 7.59351145 13.10114504 6.125 15.875 C4.64568663 17.35431337 3.13994365 18.80719653 1.625 20.25 C-0.84090047 22.43068853 -0.84090047 22.43068853 -1.21875 24.671875 C-1.86500562 27.19987494 -2.93228747 28.52937944 -4.625 30.5 C-5.39457031 31.42039062 -5.39457031 31.42039062 -6.1796875 32.359375 C-7.75 33.75 -7.75 33.75 -10.75 33.75 C-12.72094808 28.82262981 -12.9299928 24.96979128 -12.75 19.75 C-13.843125 19.976875 -14.93625 20.20375 -16.0625 20.4375 C-19.75 20.75 -19.75 20.75 -21.75 19.75 C-23.34036701 16.56926598 -22.53365299 14.12573597 -21.75 10.75 C-18.92446016 6.51169024 -16.62819112 6.77284652 -11.75 5.75 C-11.75 6.41 -11.75 7.07 -11.75 7.75 C-8.45 8.08 -5.15 8.41 -1.75 8.75 C-1.75 8.09 -1.75 7.43 -1.75 6.75 C-4.79913228 5.73888907 -4.79913228 5.73888907 -7.75 6.75 C-8.08 5.76 -8.41 4.77 -8.75 3.75 C-11.72 3.255 -11.72 3.255 -14.75 2.75 C-15.08 3.74 -15.41 4.73 -15.75 5.75 C-16.74 5.75 -17.73 5.75 -18.75 5.75 C-18.75 5.09 -18.75 4.43 -18.75 3.75 C-17.76 3.75 -16.77 3.75 -15.75 3.75 C-16.08 2.76 -16.41 1.77 -16.75 0.75 C-14.90724125 -1.60463618 -13.81935196 -2.23190819 -10.875 -3 C-6.0313768 -3.38748986 -3.82843938 -3.13235949 0 0 Z " fill="#C6C8CA" transform="translate(40.75,98.25)"/>
<path d="M0 0 C13.27211538 -0.49615385 13.27211538 -0.49615385 16.95703125 2.015625 C17.63121094 2.67046875 18.30539063 3.3253125 19 4 C18.25 9.75 18.25 9.75 16 12 C17.0209375 12.7734375 17.0209375 12.7734375 18.0625 13.5625 C20 16 20 16 19.875 19.625 C19 23 19 23 17 25 C13 26 13 26 0 26 C0 17.42 0 8.84 0 0 Z " fill="#06068A" transform="translate(122,92)"/>
<path d="M0 0 C0.66 0.33 1.32 0.66 2 1 C2 1.66 2 2.32 2 3 C2.66 3.66 3.32 4.32 4 5 C4 5.99 4 6.98 4 8 C3.01 8 2.02 8 1 8 C1 8.66 1 9.32 1 10 C1.99 9.67 2.98 9.34 4 9 C4.33 8.34 4.66 7.68 5 7 C9.53770004 6.69061136 11.56167472 7.03592649 15 10 C15.99 10.33 16.98 10.66 18 11 C18 11.66 18 12.32 18 13 C16.741875 13.04125 15.48375 13.0825 14.1875 13.125 C13.47980469 13.14820312 12.77210937 13.17140625 12.04296875 13.1953125 C10 13 10 13 7 11 C3.36060068 11.31730524 3.36060068 11.31730524 0 12 C-1.58076658 15.45792689 -2.51579638 18.1831068 -2 22 C1.4352048 24.29013653 2.985331 24.17842973 7 24 C7.19491452 25.45736087 7.38069358 26.91594593 7.5625 28.375 C7.66691406 29.18710938 7.77132813 29.99921875 7.87890625 30.8359375 C8 33 8 33 7 35 C6.01 34.34 5.02 33.68 4 33 C-0.54531422 32.78006544 -4.56590901 32.89147725 -9 34 C-9.33 32.35 -9.66 30.7 -10 29 C-10.66 29 -11.32 29 -12 29 C-14.36101623 24.27796754 -13.57172766 18.10706729 -13 13 C-10.98472687 7.86825091 -7.92389548 4.27536281 -3.25 1.375 C-2.1775 0.92125 -1.105 0.4675 0 0 Z " fill="#123564" transform="translate(21,94)"/>
<path d="M0 0 C1.8359375 0.21875 1.8359375 0.21875 4 1 C5.4140625 3.03125 5.4140625 3.03125 6.625 5.5 C8.13502598 8.90839542 8.13502598 8.90839542 11 11 C11.2475 10.29875 11.495 9.5975 11.75 8.875 C13.16088026 5.62997541 14.97895398 2.89683263 17 0 C18.32 0.33 19.64 0.66 21 1 C21.12190678 9.39802254 20.84327749 17.64251778 20 26 C18.02 26 16.04 26 14 26 C14 22.7 14 19.4 14 16 C12.515 18.475 12.515 18.475 11 21 C8 20 8 20 5 16 C5 19.3 5 22.6 5 26 C3.02 26 1.04 26 -1 26 C-1.02907084 22.41668375 -1.04682263 18.83339792 -1.0625 15.25 C-1.07087891 14.23421875 -1.07925781 13.2184375 -1.08789062 12.171875 C-1.09111328 11.1921875 -1.09433594 10.2125 -1.09765625 9.203125 C-1.10289307 8.30239258 -1.10812988 7.40166016 -1.11352539 6.47363281 C-1.00762312 4.16610196 -0.65132813 2.20865595 0 0 Z " fill="#07088A" transform="translate(190,92)"/>
<path d="M0 0 C5.55238197 2.10024883 7.20610717 7.04718999 10 12 C10.33 8.04 10.66 4.08 11 0 C12.98 0 14.96 0 17 0 C16.67 8.25 16.34 16.5 16 25 C14.68 25 13.36 25 12 25 C10.078125 22.59375 10.078125 22.59375 8.25 19.5 C7.63640625 18.4790625 7.0228125 17.458125 6.390625 16.40625 C5.70226562 15.21515625 5.70226562 15.21515625 5 14 C4.67 17.96 4.34 21.92 4 26 C2.02 26 0.04 26 -2 26 C-2.05830787 22.60423938 -2.09369946 19.2086085 -2.125 15.8125 C-2.14175781 14.85279297 -2.15851563 13.89308594 -2.17578125 12.90429688 C-2.18222656 11.97294922 -2.18867187 11.04160156 -2.1953125 10.08203125 C-2.20578613 9.22843018 -2.21625977 8.3748291 -2.22705078 7.49536133 C-1.97204194 4.69273185 -1.15541422 2.55270581 0 0 Z " fill="#030489" transform="translate(79,92)"/>
<path d="M0 0 C5.94 0 11.88 0 18 0 C18 1.32 18 2.64 18 4 C14.37 4 10.74 4 7 4 C7 5.98 7 7.96 7 10 C10.3 10 13.6 10 17 10 C17 11.65 17 13.3 17 15 C13.37 15 9.74 15 6 15 C6.33 16.65 6.66 18.3 7 20 C10.63 20.33 14.26 20.66 18 21 C18 22.65 18 24.3 18 26 C15.77144426 26.0814222 13.54202345 26.13938079 11.3125 26.1875 C9.45044922 26.23970703 9.45044922 26.23970703 7.55078125 26.29296875 C3.7197652 25.97687832 1.85264061 25.57762233 -1 23 C-1.5234375 20.21484375 -1.5234375 20.21484375 -1.375 16.9375 C-1.30925781 15.21273437 -1.30925781 15.21273437 -1.2421875 13.453125 C-0.92636445 8.95009956 -0.53525173 4.48273321 0 0 Z " fill="#030389" transform="translate(100,92)"/>
<path d="M0 0 C3.0625 2 3.0625 2 5 4 C4.67 4.99 4.34 5.98 4 7 C2.35 7.33 0.7 7.66 -1 8 C-1.66 7.01 -2.32 6.02 -3 5 C-3.66 5 -4.32 5 -5 5 C-5 5.99 -5 6.98 -5 8 C-4.45730469 8.25394531 -3.91460937 8.50789063 -3.35546875 8.76953125 C-2.28232422 9.28580078 -2.28232422 9.28580078 -1.1875 9.8125 C-0.12595703 10.31716797 -0.12595703 10.31716797 0.95703125 10.83203125 C3.05468633 12.03126427 4.47454348 13.12978086 6 15 C6.43490509 18.40675656 6.39345822 20.3067641 4.6875 23.3125 C2.1801235 25.8198765 0.17843152 25.9899001 -3.3125 26.1875 C-6.93035259 26.00354139 -9.6435876 25.30981947 -13 24 C-12.34 22.35 -11.68 20.7 -11 19 C-6.545 19.99 -6.545 19.99 -2 21 C-2.41150153 18.08601755 -2.41150153 18.08601755 -4 15 C-6.00702417 13.66059302 -8.00690045 12.71132838 -10.22265625 11.76171875 C-12 11 -12 11 -13 10 C-13.57623479 3.77666428 -13.57623479 3.77666428 -11.5625 1.0625 C-7.69991732 -0.53905867 -4.11562309 -0.69570141 0 0 Z " fill="#040589" transform="translate(158,92)"/>
<path d="M0 0 C0.33 0.66 0.66 1.32 1 2 C3.35599235 2.46751788 3.35599235 2.46751788 6.0625 2.625 C7.44115234 2.73714844 7.44115234 2.73714844 8.84765625 2.8515625 C9.55792969 2.90054688 10.26820312 2.94953125 11 3 C11.33 2.34 11.66 1.68 12 1 C11.690625 2.11375 11.690625 2.11375 11.375 3.25 C10.94302078 6.41784763 11.58277547 7.25412747 13 10 C12.625 12.25 12.625 12.25 12 14 C11.071875 14.12375 11.071875 14.12375 10.125 14.25 C7.81562433 14.81258459 7.81562433 14.81258459 6.75 17.0625 C6.5025 17.701875 6.255 18.34125 6 19 C5.01 19 4.02 19 3 19 C2.67 19.66 2.34 20.32 2 21 C0.5393715 18.35261084 0 17.10551666 0 14 C-1.093125 14.226875 -2.18625 14.45375 -3.3125 14.6875 C-7 15 -7 15 -9 14 C-10.59036701 10.81926598 -9.78365299 8.37573597 -9 5 C-6.42595029 1.13892543 -4.38979741 1.05680308 0 0 Z " fill="#F9FBFB" transform="translate(28,104)"/>
<path d="M0 0 C0.99 0 1.98 0 3 0 C4.12898402 2.85264678 5.25327567 5.70699937 6.375 8.5625 C6.69210938 9.36236328 7.00921875 10.16222656 7.3359375 10.98632812 C9.14867992 15.61259783 10.72360018 20.19738453 12 25 C10.02 25.33 8.04 25.66 6 26 C5.67 24.35 5.34 22.7 5 21 C2.69 21 0.38 21 -2 21 C-2.33 22.65 -2.66 24.3 -3 26 C-5.31 25.67 -7.62 25.34 -10 25 C-8.71177 21.58202769 -7.41881866 18.16586032 -6.125 14.75 C-5.76019531 13.78191406 -5.39539063 12.81382813 -5.01953125 11.81640625 C-4.66503906 10.88183594 -4.31054688 9.94726562 -3.9453125 8.984375 C-3.62062988 8.12553711 -3.29594727 7.26669922 -2.96142578 6.38183594 C-2.07573857 4.18763471 -1.0915155 2.09808816 0 0 Z " fill="#0C0F8D" transform="translate(176,92)"/>
<path d="M0 0 C0.66 0 1.32 0 2 0 C2.33 2.64 2.66 5.28 3 8 C3.33 8 3.66 8 4 8 C4.33 5.36 4.66 2.72 5 0 C5.66 0 6.32 0 7 0 C7.33 3.96 7.66 7.92 8 12 C8.66 12 9.32 12 10 12 C10 8.04 10 4.08 10 0 C10.33 0 10.66 0 11 0 C11.07476562 0.71285156 11.14953125 1.42570312 11.2265625 2.16015625 C12.08285427 8.39765416 13.21595688 12.21609178 17.7578125 16.66015625 C19 18 19 18 19 20 C18.34 20.66 17.68 21.32 17 22 C17 22.66 17 23.32 17 24 C16.34 24 15.68 24 15 24 C15 23.34 15 22.68 15 22 C13.68 21.34 12.36 20.68 11 20 C11 24.26826873 11.37613513 24.93882432 14 28 C7.77393719 25.20900633 4.32565704 20.27330432 1.625 14.125 C-0.18775707 9.24104294 -0.33366227 5.1717652 0 0 Z " fill="#C39068" transform="translate(39,78)"/>
<path d="M0 0 C0.66 0.33 1.32 0.66 2 1 C4.16490195 1.09685088 6.33293803 1.12979438 8.5 1.125 C10.24796875 1.12886719 10.24796875 1.12886719 12.03125 1.1328125 C14.92930786 1.2048431 14.92930786 1.2048431 17 0 C19.05859375 -0.16796875 19.05859375 -0.16796875 21.4375 -0.1875 C22.21996094 -0.20167969 23.00242188 -0.21585938 23.80859375 -0.23046875 C26 0 26 0 29 2 C28.67 2.99 28.34 3.98 28 5 C22.12402674 7.46533218 15.26790905 7.33660734 9 7.3125 C8.16210938 7.32861328 7.32421875 7.34472656 6.4609375 7.36132812 C0.4750934 7.36596113 -4.44863983 6.21501282 -10 4 C-9.67 3.01 -9.34 2.02 -9 1 C-6.01405576 -0.49297212 -3.29146376 -0.11755228 0 0 Z " fill="#C7CACC" transform="translate(19,132)"/>
<path d="M0 0 C1.99369031 0.36920191 3.99279077 0.71325582 6 1 C6 1.66 6 2.32 6 3 C6.99 3.33 7.98 3.66 9 4 C9 4.66 9 5.32 9 6 C10.32 6 11.64 6 13 6 C12.67 6.99 12.34 7.98 12 9 C9.14404567 8.49600806 6.65289724 7.86540913 3.9375 6.8125 C1.08562914 5.70862644 1.08562914 5.70862644 -1.25 6.875 C-2.11625 7.431875 -2.11625 7.431875 -3 8 C-3.66 8 -4.32 8 -5 8 C-5 9.32 -5 10.64 -5 12 C-6.32 12 -7.64 12 -9 12 C-8.67 13.32 -8.34 14.64 -8 16 C-11.05561782 14.94633868 -11.98224736 14.02789701 -13.75 11.25 C-15.04143139 7.89227838 -15.25425628 5.55958794 -15 2 C-14.34 2 -13.68 2 -13 2 C-13 4.31 -13 6.62 -13 9 C-12.34 9 -11.68 9 -11 9 C-11.33 7.02 -11.66 5.04 -12 3 C-11.01 3.33 -10.02 3.66 -9 4 C-9.33 5.65 -9.66 7.3 -10 9 C-9.34 8.67 -8.68 8.34 -8 8 C-8 6.68 -8 5.36 -8 4 C-6.5459375 4.0309375 -6.5459375 4.0309375 -5.0625 4.0625 C-2.12534105 4.35618499 -2.12534105 4.35618499 -1 3 C-2.134375 2.71125 -3.26875 2.4225 -4.4375 2.125 C-5.613125 1.75375 -6.78875 1.3825 -8 1 C-8.33 0.34 -8.66 -0.32 -9 -1 C-5.16697034 -2.27767655 -3.75418009 -1.32500474 0 0 Z " fill="#504F50" transform="translate(73,76)"/>
<path d="M0 0 C1.99965715 0.03703069 4.00056665 0.04760556 6 0 C6.19491452 1.45736087 6.38069358 2.91594593 6.5625 4.375 C6.66691406 5.18710938 6.77132813 5.99921875 6.87890625 6.8359375 C7 9 7 9 6 11 C5.01 10.34 4.02 9.68 3 9 C-1.54531422 8.78006544 -5.56590901 8.89147725 -10 10 C-10.12375 9.195625 -10.2475 8.39125 -10.375 7.5625 C-10.684375 6.2940625 -10.684375 6.2940625 -11 5 C-11.66 4.67 -12.32 4.34 -13 4 C-11.68 3.34 -10.36 2.68 -9 2 C-9 1.34 -9 0.68 -9 0 C-5.4554328 -1.1815224 -3.64313132 -0.64290553 0 0 Z " fill="#0287BE" transform="translate(22,118)"/>
<path d="M0 0 C3 1 3 1 4 3 C4.23553948 7.23971058 4.32845886 10.36178302 2 14 C-0.9375 13.625 -0.9375 13.625 -4 13 C-4.33 12.34 -4.66 11.68 -5 11 C-5.33 11.66 -5.66 12.32 -6 13 C-6.99 13 -7.98 13 -9 13 C-9 9.04 -9 5.08 -9 1 C-6.69 1 -4.38 1 -2 1 C-1.67 1.66 -1.34 2.32 -1 3 C-0.67 2.01 -0.34 1.02 0 0 Z " fill="#F1F5F7" transform="translate(182,126)"/>
<path d="M0 0 C5.75 1.625 5.75 1.625 8 5 C8.99 5 9.98 5 11 5 C11 7.64 11 10.28 11 13 C9.68 13 8.36 13 7 13 C7 12.34 7 11.68 7 11 C6.01 11.66 5.02 12.32 4 13 C1.3125 13.125 1.3125 13.125 -1 13 C-1.02686553 11.02090602 -1.04633375 9.04171029 -1.0625 7.0625 C-1.07410156 5.96035156 -1.08570313 4.85820312 -1.09765625 3.72265625 C-1 1 -1 1 0 0 Z " fill="#E7EDF4" transform="translate(51,126)"/>
<path d="M0 0 C-0.33346109 7.50287445 -1.82636898 11.98911929 -7.4375 17.3125 C-10.0570268 19.03755423 -11.90960986 19.64681256 -15 20 C-13.34697456 16.41844487 -11.18447628 13.27671443 -9 10 C-8.649375 9.236875 -8.29875 8.47375 -7.9375 7.6875 C-7 6 -7 6 -4 5 C-4 4.34 -4 3.68 -4 3 C-4.66 2.34 -5.32 1.68 -6 1 C-3.92446352 0.4465236 -2.15634036 0 0 0 Z " fill="#193B6C" transform="translate(48,113)"/>
<path d="M0 0 C3 1.875 3 1.875 5 4 C5 4.66 5 5.32 5 6 C6.32 6.33 7.64 6.66 9 7 C9 7.33 9 7.66 9 8 C0.59589453 8.57650114 -5.38940013 8.59204823 -12 3 C-9.88671374 -1.22657252 -4.17855322 -0.60971107 0 0 Z " fill="#43B7E5" transform="translate(25,126)"/>
<path d="M0 0 C2.2680963 2.77211769 2.94918829 4.24053006 3.25 7.75 C4.24 7.42 5.23 7.09 6.25 6.75 C6.58 8.4 6.91 10.05 7.25 11.75 C5.93 11.75 4.61 11.75 3.25 11.75 C1.89721885 9.76310269 0.56431695 7.76254782 -0.75 5.75 C-2.87119128 4.79768403 -2.87119128 4.79768403 -4.75 4.75 C-4.75 4.09 -4.75 3.43 -4.75 2.75 C-8.38 2.09 -12.01 1.43 -15.75 0.75 C-13.75 -2.25 -13.75 -2.25 -10.9375 -3 C-6.06439044 -3.38220467 -3.85170073 -3.15139151 0 0 Z " fill="#A8B1BC" transform="translate(40.75,98.25)"/>
<path d="M0 0 C0.66 0 1.32 0 2 0 C2.33 2.64 2.66 5.28 3 8 C3.99 8 4.98 8 6 8 C6.27714844 8.62648438 6.55429687 9.25296875 6.83984375 9.8984375 C7.20207031 10.71570313 7.56429687 11.53296875 7.9375 12.375 C8.29714844 13.18710938 8.65679687 13.99921875 9.02734375 14.8359375 C9.6569903 16.23683785 10.31312642 17.62625284 11 19 C10.773125 19.598125 10.54625 20.19625 10.3125 20.8125 C9.70859515 23.25396314 9.70859515 23.25396314 11.9375 25.75 C12.618125 26.4925 13.29875 27.235 14 28 C7.77393719 25.20900633 4.32565704 20.27330432 1.625 14.125 C-0.18775707 9.24104294 -0.33366227 5.1717652 0 0 Z " fill="#B39581" transform="translate(39,78)"/>
<path d="M0 0 C-0.12729179 6.11000574 -2.18611487 8.98315433 -6.2109375 13.49609375 C-8 15 -8 15 -11 15 C-12.125 12.1875 -12.125 12.1875 -13 9 C-11 6 -11 6 -9 5.5625 C-6.80159578 5.19825059 -6.80159578 5.19825059 -5.875 3 C-5.441875 2.01 -5.441875 2.01 -5 1 C-3 0 -3 0 0 0 Z " fill="#DCE5EA" transform="translate(41,117)"/>
<path d="M0 0 C0.99 0.33 1.98 0.66 3 1 C4.08215681 4.34484831 4.08274916 5.78223907 2.8125 9.125 C1.06639813 11.89467883 -0.19388167 13.37064097 -3 15 C-3.66 15 -4.32 15 -5 15 C-5.33 15.66 -5.66 16.32 -6 17 C-6.8119452 9.55716899 -4.52317917 5.81551608 0 0 Z " fill="#0F254C" transform="translate(14,98)"/>
<path d="M0 0 C0.66 0 1.32 0 2 0 C2 2.31 2 4.62 2 7 C2.66 7 3.32 7 4 7 C3.67 5.02 3.34 3.04 3 1 C3.99 1.33 4.98 1.66 6 2 C5.67 3.65 5.34 5.3 5 7 C5.66 6.67 6.32 6.34 7 6 C7 4.68 7 3.36 7 2 C7.66 2 8.32 2 9 2 C9 2.99 9 3.98 9 5 C9.99 5.33 10.98 5.66 12 6 C11.34 6 10.68 6 10 6 C10 7.32 10 8.64 10 10 C8.68 10 7.36 10 6 10 C6.33 11.32 6.66 12.64 7 14 C3.94438218 12.94633868 3.01775264 12.02789701 1.25 9.25 C-0.04143139 5.89227838 -0.25425628 3.55958794 0 0 Z " fill="#AE8766" transform="translate(58,78)"/>
<path d="M0 0 C3 1 3 1 4 3 C4.23553948 7.23971058 4.32845886 10.36178302 2 14 C1.34 14 0.68 14 0 14 C-1.32 11.36 -2.64 8.72 -4 6 C-3.01 5.01 -2.02 4.02 -1 3 C-0.67 2.01 -0.34 1.02 0 0 Z " fill="#89A9D1" transform="translate(182,126)"/>
<path d="M0 0 C1.99965715 0.03703069 4.00056665 0.04760556 6 0 C6.33 2.31 6.66 4.62 7 7 C6.67 6.34 6.34 5.68 6 5 C1.33876047 2.89134402 -2.04687677 2.78508298 -7 4 C-8.92283085 5.41591827 -8.92283085 5.41591827 -10 7 C-10.33 6.34 -10.66 5.68 -11 5 C-11.66 4.67 -12.32 4.34 -13 4 C-11.68 3.34 -10.36 2.68 -9 2 C-9 1.34 -9 0.68 -9 0 C-5.4554328 -1.1815224 -3.64313132 -0.64290553 0 0 Z " fill="#0C79AF" transform="translate(22,118)"/>
<path d="M0 0 C1.32 0.33 2.64 0.66 4 1 C3.01 1 2.02 1 1 1 C1 1.66 1 2.32 1 3 C1.99 2.67 2.98 2.34 4 2 C4.33 1.34 4.66 0.68 5 0 C9.53770004 -0.30938864 11.56167472 0.03592649 15 3 C15.99 3.33 16.98 3.66 18 4 C18 4.66 18 5.32 18 6 C16.741875 6.04125 15.48375 6.0825 14.1875 6.125 C13.47980469 6.14820312 12.77210937 6.17140625 12.04296875 6.1953125 C10 6 10 6 7 4 C3.85778033 4.31506627 3.85778033 4.31506627 1 5 C0.67 3.35 0.34 1.7 0 0 Z " fill="#7086A9" transform="translate(21,101)"/>
<path d="M0 0 C1.32 0.33 2.64 0.66 4 1 C3.875 4.25 3.875 4.25 3 8 C-0.14971479 10.67041036 -1.83465342 12 -6 12 C-4.81145707 9.42482365 -3.4794298 7.23445558 -1.875 4.875 C0.18208926 2.29286023 0.18208926 2.29286023 0 0 Z " fill="#0776AC" transform="translate(39,121)"/>
<path d="M0 0 C0.66 0 1.32 0 2 0 C2 3.63 2 7.26 2 11 C0.35 11 -1.3 11 -3 11 C-4 10 -4 10 -4.0625 6.9375 C-4.041875 5.968125 -4.02125 4.99875 -4 4 C-2.68 3.67 -1.36 3.34 0 3 C0 2.01 0 1.02 0 0 Z " fill="#F2F6F8" transform="translate(210,128)"/>
<path d="M0 0 C1.98 0 3.96 0 6 0 C5.84402344 0.55429688 5.68804687 1.10859375 5.52734375 1.6796875 C5.33269531 2.40414062 5.13804688 3.12859375 4.9375 3.875 C4.74027344 4.59429687 4.54304688 5.31359375 4.33984375 6.0546875 C3.78867393 8.07273593 3.78867393 8.07273593 5 10 C3.125 9.75 3.125 9.75 1 9 C-0.87380446 6.50159405 -1.05001932 5.36680834 -0.625 2.25 C-0.41875 1.5075 -0.2125 0.765 0 0 Z " fill="#EFF3F6" transform="translate(65,131)"/>
<path d="M0 0 C1.65 0.33 3.3 0.66 5 1 C4.01 1.33 3.02 1.66 2 2 C2.515625 2.7425 3.03125 3.485 3.5625 4.25 C5 7 5 7 4.6875 9.3125 C4.460625 9.869375 4.23375 10.42625 4 11 C2.35 11.33 0.7 11.66 -1 12 C-1 11.01 -1 10.02 -1 9 C-0.01 9 0.98 9 2 9 C1.484375 8.2575 0.96875 7.515 0.4375 6.75 C-1 4 -1 4 -0.6875 1.6875 C-0.460625 1.130625 -0.23375 0.57375 0 0 Z " fill="#F2F5F7" transform="translate(102,127)"/>
<path d="M0 0 C0.99 0 1.98 0 3 0 C3 3.63 3 7.26 3 11 C3.99 11 4.98 11 6 11 C6 11.66 6 12.32 6 13 C4.02 13 2.04 13 0 13 C0 8.71 0 4.42 0 0 Z " fill="#ECF0F5" transform="translate(192,126)"/>
<path d="M0 0 C0.99 0.33 1.98 0.66 3 1 C4.08215681 4.34484831 4.08274916 5.78223907 2.8125 9.125 C1.06639813 11.89467883 -0.19388167 13.37064097 -3 15 C-3.66 15 -4.32 15 -5 15 C-5.33 15.66 -5.66 16.32 -6 17 C-6 15.68 -6 14.36 -6 13 C-5.195625 12.566875 -4.39125 12.13375 -3.5625 11.6875 C-0.58444169 10.15327049 -0.58444169 10.15327049 -0.1875 6.3125 C-0.125625 5.219375 -0.06375 4.12625 0 3 C-0.66 2.67 -1.32 2.34 -2 2 C-1.34 1.34 -0.68 0.68 0 0 Z " fill="#162D56" transform="translate(14,98)"/>
<path d="M0 0 C1.98 0 3.96 0 6 0 C6.04241723 2.33294775 6.04092937 4.66702567 6 7 C5 8 5 8 2.4375 8.0625 C1.633125 8.041875 0.82875 8.02125 0 8 C0 5.36 0 2.72 0 0 Z " fill="#F0F4F7" transform="translate(122,131)"/>
<path d="M0 0 C1.67542976 0.28604898 3.34385343 0.61781233 5 1 C5.125 3.375 5.125 3.375 5 6 C4.34 6.66 3.68 7.32 3 8 C0.875 7.625 0.875 7.625 -1 7 C-1.04254356 5.00045254 -1.04080783 2.99958364 -1 1 C-0.67 0.67 -0.34 0.34 0 0 Z " fill="#EBF0F5" transform="translate(110,131)"/>
<path d="M0 0 C3.875 0.875 3.875 0.875 5 2 C5.04080783 3.99958364 5.04254356 6.00045254 5 8 C3.02 8 1.04 8 -1 8 C-2.2077558 4.37673261 -1.54311128 3.35853631 0 0 Z " fill="#F8FAFB" transform="translate(85,131)"/>
<path d="M0 0 C1.67542976 0.28604898 3.34385343 0.61781233 5 1 C5 2.65 5 4.3 5 6 C3.02 6.99 3.02 6.99 1 8 C-1 6 -1 6 -1.1875 3.4375 C-1 1 -1 1 0 0 Z " fill="#EFF3F6" transform="translate(142,131)"/>
<path d="M0 0 C4.54805635 -0.17835515 7.8794254 0.00214565 12 2 C12 2.66 12 3.32 12 4 C12.99 4.33 13.98 4.66 15 5 C13.35 5.33 11.7 5.66 10 6 C9.34 5.01 8.68 4.02 8 3 C4.93443402 2.26656572 4.93443402 2.26656572 2 2 C1.67 2.99 1.34 3.98 1 5 C0.01 5 -0.98 5 -2 5 C-2 4.34 -2 3.68 -2 3 C-1.01 3 -0.02 3 1 3 C0.67 2.01 0.34 1.02 0 0 Z " fill="#DFE5EA" transform="translate(24,99)"/>
<path d="M0 0 C0.66 0 1.32 0 2 0 C2 4.29 2 8.58 2 13 C1.01 13 0.02 13 -1 13 C-1.02686553 11.02090602 -1.04633375 9.04171029 -1.0625 7.0625 C-1.07410156 5.96035156 -1.08570312 4.85820312 -1.09765625 3.72265625 C-1 1 -1 1 0 0 Z " fill="#ECF1F4" transform="translate(93,126)"/>
<path d="M0 0 C2.475 0.495 2.475 0.495 5 1 C5.38218767 2.65614657 5.71395102 4.32457024 6 6 C5 7 5 7 2.4375 7.0625 C1.2309375 7.0315625 1.2309375 7.0315625 0 7 C0 4.69 0 2.38 0 0 Z " fill="#81A1CE" transform="translate(129,106)"/>
<path d="M0 0 C1.66611905 -0.042721 3.33382885 -0.04063832 5 0 C6 1 6 1 6.0625 4.5625 C6.041875 5.696875 6.02125 6.83125 6 8 C5.34 8 4.68 8 4 8 C4 6.35 4 4.7 4 3 C3.34 3 2.68 3 2 3 C2 4.65 2 6.3 2 8 C1.34 8 0.68 8 0 8 C0 5.36 0 2.72 0 0 Z " fill="#FCFDFC" transform="translate(149,131)"/>
<path d="M0 0 C1.07894531 0.04640625 2.15789063 0.0928125 3.26953125 0.140625 C4.35621094 0.17671875 5.44289063 0.2128125 6.5625 0.25 C7.39394531 0.29640625 8.22539062 0.3428125 9.08203125 0.390625 C9.74203125 2.040625 10.40203125 3.690625 11.08203125 5.390625 C10.58703125 5.060625 10.09203125 4.730625 9.58203125 4.390625 C4.64333455 2.41514632 -0.84963873 3.12354249 -5.91796875 4.390625 C-4.20732299 1.34147397 -3.55091093 0.47535622 0 0 Z " fill="#0198CA" transform="translate(17.91796875,123.609375)"/>
<path d="M0 0 C0.66 0.66 1.32 1.32 2 2 C2.99 2 3.98 2 5 2 C5 4.64 5 7.28 5 10 C3.68 10 2.36 10 1 10 C-0.60725635 6.78548731 -0.05748185 3.56387464 0 0 Z " fill="#CBD9E9" transform="translate(57,129)"/>
<path d="M0 0 C0.96003573 2.8801072 1.07845802 4.58599883 1 7.5625 C0.87044355 10.91281982 0.87044355 10.91281982 2 14 C0.68 13.67 -0.64 13.34 -2 13 C-2.92221976 8.29667924 -3.27536232 5.29790661 -1 1 C-0.67 0.67 -0.34 0.34 0 0 Z " fill="#EFF3F6" transform="translate(170,126)"/>
<path d="M0 0 C0.99 0 1.98 0 3 0 C3.74926071 3.66305234 4.2380014 6.42355152 3 10 C2.01 10 1.02 10 0 10 C-0.74926071 6.33694766 -1.2380014 3.57644848 0 0 Z " fill="#EDF2F5" transform="translate(78,129)"/>
<path d="M0 0 C0.33 0.99 0.66 1.98 1 3 C-1.25 6.1875 -1.25 6.1875 -4 9 C-4.99 9 -5.98 9 -7 9 C-7.33 7.68 -7.66 6.36 -8 5 C-6.865625 4.54625 -5.73125 4.0925 -4.5625 3.625 C-0.95278308 2.42904194 -0.95278308 2.42904194 0 0 Z " fill="#C2C8CB" transform="translate(37,123)"/>
<path d="M0 0 C1.45823212 -0.0270043 2.91660675 -0.04639787 4.375 -0.0625 C5.18710937 -0.07410156 5.99921875 -0.08570313 6.8359375 -0.09765625 C9 0 9 0 11 1 C11 1.66 11 2.32 11 3 C11.66 3.33 12.32 3.66 13 4 C7.66404866 4.27131956 4.38616179 4.4266889 0 1 C0 0.67 0 0.34 0 0 Z " fill="#5BCAF9" transform="translate(16,130)"/>
<path d="M0 0 C3 1 3 1 4 3 C4.23553948 7.23971058 4.32845886 10.36178302 2 14 C1.34 13.67 0.68 13.34 0 13 C0.185625 11.783125 0.37125 10.56625 0.5625 9.3125 C0.98993182 5.97022061 0.92258883 3.28031583 0 0 Z " fill="#F4F6F8" transform="translate(182,126)"/>
<path d="M0 0 C1.32 0.66 2.64 1.32 4 2 C4 2.66 4 3.32 4 4 C5.32 3.67 6.64 3.34 8 3 C7.67 4.32 7.34 5.64 7 7 C4.69 6.34 2.38 5.68 0 5 C-0.5625 3.0625 -0.5625 3.0625 -1 1 C-0.67 0.67 -0.34 0.34 0 0 Z " fill="#7D9ACB" transform="translate(153,96)"/>
<path d="M0 0 C1.98362069 2.91708924 1.9876191 4.12380904 1.625 7.75 C1.41875 8.8225 1.2125 9.895 1 11 C0.34 11 -0.32 11 -1 11 C-1 9.68 -1 8.36 -1 7 C-1.66 7 -2.32 7 -3 7 C-2.625 4.0625 -2.625 4.0625 -2 1 C-1.34 0.67 -0.68 0.34 0 0 Z " fill="#F0F4F7" transform="translate(132,128)"/>
<path d="M0 0 C-4.625 5.875 -4.625 5.875 -8 7 C-8 6.34 -8 5.68 -8 5 C-8.66 4.67 -9.32 4.34 -10 4 C-8.68 3.34 -7.36 2.68 -6 2 C-6 1.34 -6 0.68 -6 0 C-3 -1 -3 -1 0 0 Z " fill="#006EA6" transform="translate(19,118)"/>
<path d="M0 0 C2.625 -0.1875 2.625 -0.1875 5 0 C5 0.66 5 1.32 5 2 C7.31 2.33 9.62 2.66 12 3 C9 5 9 5 6.30078125 4.7578125 C5.31464844 4.54898438 4.32851563 4.34015625 3.3125 4.125 C2.31863281 3.92132813 1.32476563 3.71765625 0.30078125 3.5078125 C-0.45847656 3.34023437 -1.21773437 3.17265625 -2 3 C-1.34 2.01 -0.68 1.02 0 0 Z " fill="#C9CACB" transform="translate(27,96)"/>
<path d="M0 0 C0.99 0 1.98 0 3 0 C3.74926071 3.66305234 4.2380014 6.42355152 3 10 C2.34 10 1.68 10 1 10 C1 8.68 1 7.36 1 6 C0.34 6 -0.32 6 -1 6 C-0.67 4.02 -0.34 2.04 0 0 Z " fill="#F6F8F9" transform="translate(200,129)"/>
<path d="M0 0 C2.0625 0.4375 2.0625 0.4375 4 1 C3.67 1.66 3.34 2.32 3 3 C2.64386903 4.66194453 2.30791692 6.328451 2 8 C1.01 8 0.02 8 -1 8 C-1.04241723 5.66705225 -1.04092937 3.33297433 -1 1 C-0.67 0.67 -0.34 0.34 0 0 Z " fill="#F0F4F6" transform="translate(158,131)"/>
<path d="M0 0 C0.66 0.99 1.32 1.98 2 3 C0.02 3.33 -1.96 3.66 -4 4 C-4 4.66 -4 5.32 -4 6 C-5.98 6.99 -5.98 6.99 -8 8 C-8.33 6.68 -8.66 5.36 -9 4 C-6.03 2.68 -3.06 1.36 0 0 Z " fill="#165987" transform="translate(17,114)"/>
<path d="M0 0 C0.99 0 1.98 0 3 0 C3.33 2.31 3.66 4.62 4 7 C4.99 7.33 5.98 7.66 7 8 C6.02149805 9.02104551 5.02019573 10.0206121 4 11 C3.67 11 3.34 11 3 11 C2.01 7.37 1.02 3.74 0 0 Z " fill="#A3AEBC" transform="translate(38,108)"/>
<path d="M0 0 C0.99 0 1.98 0 3 0 C3 2.64 3 5.28 3 8 C2.01 8 1.02 8 0 8 C0 5.36 0 2.72 0 0 Z " fill="#EBEFF5" transform="translate(72,131)"/>
<path d="M0 0 C0.99 0 1.98 0 3 0 C3 2.64 3 5.28 3 8 C2.01 8 1.02 8 0 8 C0 5.36 0 2.72 0 0 Z " fill="#EEF3F6" transform="translate(136,131)"/>
<path d="M0 0 C0 0.99 0 1.98 0 3 C-5.75 6 -5.75 6 -8 6 C-6.72879117 2.18637351 -4.19078006 0 0 0 Z " fill="#0B4676" transform="translate(17,112)"/>
<path d="M0 0 C0.66 0.226875 1.32 0.45375 2 0.6875 C2.99 1.0175 3.98 1.3475 5 1.6875 C5 2.3475 5 3.0075 5 3.6875 C-1.0546875 3.8828125 -1.0546875 3.8828125 -3 3.6875 C-3.66 3.0275 -4.32 2.3675 -5 1.6875 C-2 -0.3125 -2 -0.3125 0 0 Z " fill="#254982" transform="translate(34,103.3125)"/>
<path d="M0 0 C0.66 0.33 1.32 0.66 2 1 C1.1875 3.4375 1.1875 3.4375 0 6 C-0.99 6.33 -1.98 6.66 -3 7 C-3.33 7.99 -3.66 8.98 -4 10 C-3.5205537 5.78087253 -2.83374881 3.20336822 0 0 Z " fill="#0C1B3F" transform="translate(12,101)"/>
<path d="M0 0 C0.66 0 1.32 0 2 0 C2 0.99 2 1.98 2 3 C2.99 3.33 3.98 3.66 5 4 C4.34 4 3.68 4 3 4 C3 5.32 3 6.64 3 8 C2.01 8 1.02 8 0 8 C0 7.34 0 6.68 0 6 C-0.66 5.67 -1.32 5.34 -2 5 C-1.34 4.67 -0.68 4.34 0 4 C0 2.68 0 1.36 0 0 Z " fill="#73716F" transform="translate(65,80)"/>
<path d="M0 0 C1.98 0.495 1.98 0.495 4 1 C3.625 3.4375 3.625 3.4375 3 6 C2.01 6.495 2.01 6.495 1 7 C1 6.34 1 5.68 1 5 C0.34 4.67 -0.32 4.34 -1 4 C-0.67 2.68 -0.34 1.36 0 0 Z " fill="#56769B" transform="translate(39,121)"/>
<path d="M0 0 C2.475 0.495 2.475 0.495 5 1 C5 1.99 5 2.98 5 4 C3.35 4.33 1.7 4.66 0 5 C0 3.35 0 1.7 0 0 Z " fill="#7592C6" transform="translate(129,96)"/>
<path d="M0 0 C0 0.99 0 1.98 0 3 C-2.35171131 2.40138258 -4.6859378 1.73075648 -7 1 C-7.33 0.34 -7.66 -0.32 -8 -1 C-4.37673261 -2.2077558 -3.35853631 -1.54311128 0 0 Z " fill="#66687B" transform="translate(72,76)"/>
<path d="M0 0 C0.66 0.33 1.32 0.66 2 1 C2 1.66 2 2.32 2 3 C2.66 3.66 3.32 4.32 4 5 C0.25 6.125 0.25 6.125 -2 5 C-2 3.68 -2 2.36 -2 1 C-1.34 0.67 -0.68 0.34 0 0 Z " fill="#345489" transform="translate(21,94)"/>
<path d="M0 0 C2.33944736 0.28730055 4.6739143 0.61936779 7 1 C6.67 1.99 6.34 2.98 6 4 C1.25 3.25 1.25 3.25 -1 1 C-0.67 0.67 -0.34 0.34 0 0 Z " fill="#212242" transform="translate(79,81)"/>
<path d="M0 0 C0.99 0 1.98 0 3 0 C3 0.99 3 1.98 3 3 C3.99 2.67 4.98 2.34 6 2 C6 3.32 6 4.64 6 6 C3.5625 5.25 3.5625 5.25 1 4 C0.1875 1.875 0.1875 1.875 0 0 Z " fill="#B0C5DE" transform="translate(72,127)"/>
<path d="M0 0 C1.98 0.495 1.98 0.495 4 1 C3.67 2.32 3.34 3.64 3 5 C1.68 4.67 0.36 4.34 -1 4 C-0.67 2.68 -0.34 1.36 0 0 Z " fill="#E5EBF2" transform="translate(84,134)"/>
</svg>
